<?xml version="1.0" encoding="UTF-8"?>
<!DOCTYPE svg PUBLIC "-//W3C//DTD SVG 1.1//EN" "http://www.w3.org/Graphics/SVG/1.1/DTD/svg11.dtd">
<!-- Creator: CorelDRAW 2019 (64-Bit Versión de evaluación) -->
<svg xmlns="http://www.w3.org/2000/svg" xml:space="preserve" width="300mm" height="300mm" version="1.1" style="shape-rendering:geometricPrecision; text-rendering:geometricPrecision; image-rendering:optimizeQuality; fill-rule:evenodd; clip-rule:evenodd"
viewBox="0 0 30000 30000"
 xmlns:xlink="http://www.w3.org/1999/xlink">
 <defs>
  <style type="text/css">
   <![CDATA[
    .str0 {stroke:black;stroke-width:35.28;stroke-miterlimit:10}
    .fil0 {fill:white;fill-rule:nonzero}
   ]]>
  </style>
 </defs>
 <g id="Capa_x0020_1">
  <metadata id="CorelCorpID_0Corel-Layer"/>
  <polygon class="fil0 str0" points="21022.57,13555.07 23298.83,12252.72 21034,10933.29 21032.41,10934.35 "/>
  <polygon class="fil0 str0" points="23289.06,14865.55 23290.4,12243.03 21019.78,13552.47 21019.89,13554.38 "/>
  <polygon class="fil0 str0" points="16494.88,8300.09 16482.15,10921.62 18758.41,9619.27 "/>
  <polygon class="fil0 str0" points="16488.72,10912.02 18758.21,12234.2 18767.94,9609.11 18766.99,9608.55 "/>
  <polygon class="fil0 str0" points="18758.21,12234.18 18759.94,12235.17 21035.04,10933.14 21035,10929.82 18767.95,9609.13 "/>
  <polygon class="fil0 str0" points="11928.96,10901.97 9662.26,12193.59 11948.05,13508.61 "/>
  <polygon class="fil0 str0" points="14215.57,12234.46 16486.58,10909.6 14217.23,9599.45 "/>
  <polygon class="fil0 str0" points="11928.51,10892.87 11948.97,13498.66 14225.24,12196.31 "/>
  <polygon class="fil0 str0" points="11944.91,13506.8 9682.9,12193.62 9680.78,12195 9672.28,14805.17 "/>
  <polygon class="fil0 str0" points="14218.3,9591.9 11929.23,10898.37 14209.55,12216.78 "/>
  <polygon class="fil0 str0" points="16494.19,8299.51 14216.59,9598.89 16493.03,10912.96 "/>
  <polygon class="fil0 str0" points="16562.37,12115.88 14205.75,13448.85 15326.13,14110.87 "/>
  <polygon class="fil0 str0" points="17579.95,12711.02 16560.39,12119.13 15326.23,14110.59 "/>
  <polygon class="fil0 str0" points="15326.31,14110.62 14215.76,15984.72 15320.81,16631.43 "/>
  <polygon class="fil0 str0" points="17588.98,15420.83 15326.22,14110.65 15320.47,16631.49 "/>
  <polygon class="fil0 str0" points="14215.75,15984.55 11952.68,17286.58 13024.73,17937.95 13026.32,17936.93 "/>
  <polygon class="fil0 str0" points="13026.81,17935.61 11945.79,19852.6 13091.44,20524.54 "/>
  <polygon class="fil0 str0" points="15303.54,19263.04 13028.19,17934.97 13090.67,20523.06 "/>
  <polygon class="fil0 str0" points="15326.2,14110.69 14202.68,13446.38 14215.73,15984.54 "/>
  <polygon class="fil0 str0" points="11943.02,19853.94 13027.07,17935.82 11952.68,17286.74 "/>
  <polygon class="fil0 str0" points="17590.18,15428.55 19804.6,16720.74 19802.17,14002.41 "/>
  <polygon class="fil0 str0" points="17597.52,15329.53 15321.26,16631.88 17573.25,17956.84 "/>
  <polygon class="fil0 str0" points="17595.9,12699.03 15326.2,14110.64 17585.28,15418.52 "/>
  <polygon class="fil0 str0" points="17588.94,20512.26 17573.28,17956.95 15296.98,19259.3 "/>
  <polygon class="fil0 str0" points="19798.32,16708.53 17587.95,15422.16 17573.35,17956.94 "/>
  <polygon class="fil0 str0" points="18762.17,13393.29 17590.1,14061.45 17591.2,15426.34 19804.81,14002.22 "/>
  <polygon class="fil0 str0" points="15303.43,19262.93 15320.12,16632.62 13028.05,17936.24 "/>
  <polygon class="fil0 str0" points="17573.34,17956.93 15320.5,16631.86 15301.31,19256.25 15304.69,19258.26 "/>
  <polygon class="fil0 str0" points="15307.6,21811.03 15303.16,19263.23 14208.03,19894.28 14208.03,21157.65 "/>
  <polygon class="fil0 str0" points="17591.32,20514.64 15303.2,19263.09 15307.61,21811.03 "/>
  <polygon class="fil0 str0" points="15320.11,16631.88 13028.78,17934.73 14215.84,15984.5 "/>
 </g>
</svg>
