<?xml version="1.0" encoding="UTF-8"?>
<!DOCTYPE svg PUBLIC "-//W3C//DTD SVG 1.1//EN" "http://www.w3.org/Graphics/SVG/1.1/DTD/svg11.dtd">
<!-- Creator: CorelDRAW 2019 (64-Bit Versión de evaluación) -->
<svg xmlns="http://www.w3.org/2000/svg" xml:space="preserve" width="136.365mm" height="135.115mm" version="1.1" style="shape-rendering:geometricPrecision; text-rendering:geometricPrecision; image-rendering:optimizeQuality; fill-rule:evenodd; clip-rule:evenodd"
viewBox="0 0 4223.27 4184.55"
 xmlns:xlink="http://www.w3.org/1999/xlink">
 <defs>
  <style type="text/css">
   <![CDATA[
    .fil4 {fill:#00A7A7;fill-rule:nonzero}
    .fil2 {fill:#282759;fill-rule:nonzero}
    .fil5 {fill:#4780A8;fill-rule:nonzero}
    .fil1 {fill:#E84436;fill-rule:nonzero}
    .fil0 {fill:#F7A43E;fill-rule:nonzero}
    .fil6 {fill:#FF6708;fill-rule:nonzero}
    .fil3 {fill:#FFD580;fill-rule:nonzero}
   ]]>
  </style>
 </defs>
 <g id="Capa_x0020_1">
  <metadata id="CorelCorpID_0Corel-Layer"/>
  <polygon class="fil0" points="3518.31,1627.66 4223.27,1224.32 3521.85,815.69 3521.36,816.02 "/>
  <polygon class="fil1" points="4220.25,2033.52 4220.66,1221.32 3517.45,1626.85 3517.48,1627.45 "/>
  <polygon class="fil2" points="2116.08,0.18 2112.14,812.07 2817.1,408.73 "/>
  <polygon class="fil0" points="2114.16,809.1 2817.03,1218.58 2820.05,405.59 2819.75,405.41 "/>
  <polygon class="fil3" points="2817.03,1218.58 2817.55,1218.88 3522.18,815.64 3522.16,814.61 2820.05,405.59 "/>
  <polygon class="fil4" points="701.99,805.99 -0,1206.01 707.91,1613.27 "/>
  <polygon class="fil4" points="1410.16,1218.66 2113.5,808.35 1410.67,402.59 "/>
  <polygon class="fil0" points="701.86,803.17 708.2,1610.19 1413.16,1206.85 "/>
  <polygon class="fil5" points="706.94,1612.71 6.39,1206.02 5.73,1206.44 3.1,2014.82 "/>
  <polygon class="fil5" points="1411.01,400.26 702.08,804.87 1408.3,1213.19 "/>
  <polygon class="fil5" points="2115.87,0 1410.48,402.42 2115.51,809.39 "/>
  <polygon class="fil5" points="2136.97,1181.94 1407.12,1594.76 1754.11,1799.79 "/>
  <polygon class="fil4" points="2452.12,1366.26 2136.36,1182.95 1754.15,1799.71 "/>
  <polygon class="fil3" points="1754.16,1799.71 1410.22,2380.13 1752.45,2580.42 "/>
  <polygon class="fil6" points="2454.92,2205.49 1754.15,1799.72 1752.36,2580.43 "/>
  <polygon class="fil5" points="1410.22,2380.08 709.34,2783.32 1041.36,2985.05 1041.85,2984.73 "/>
  <polygon class="fil3" points="1042,2984.32 707.21,3578.02 1062.03,3786.12 "/>
  <polygon class="fil1" points="1747.11,3395.43 1042.42,2984.13 1061.77,3785.66 "/>
  <polygon class="fil3" points="1754.14,1799.74 1406.17,1594 1410.21,2380.07 "/>
  <polygon class="fil3" points="706.35,3578.43 1042.08,2984.39 709.34,2783.37 "/>
  <polygon class="fil1" points="2455.29,2207.88 3141.1,2608.08 3140.35,1766.2 "/>
  <polygon class="fil6" points="2457.57,2177.21 1752.59,2580.56 2450.04,2990.9 "/>
  <polygon class="fil1" points="2457.06,1362.54 1754.14,1799.72 2453.78,2204.77 "/>
  <polygon class="fil6" points="2454.9,3782.32 2450.05,2990.93 1745.07,3394.27 "/>
  <polygon class="fil6" points="3139.16,2604.29 2454.6,2205.9 2450.07,2990.93 "/>
  <polygon class="fil2" points="2818.25,1577.56 2455.27,1784.49 2455.6,2207.2 3141.17,1766.14 "/>
  <polygon class="fil6" points="1747.07,3395.4 1752.24,2580.78 1042.39,2984.52 "/>
  <polygon class="fil6" points="2450.07,2990.93 1752.36,2580.55 1746.41,3393.33 1747.47,3393.95 "/>
  <polygon class="fil2" points="1748.37,4184.55 1747,3395.49 1407.83,3590.93 1407.83,3982.2 "/>
  <polygon class="fil1" points="2455.64,3783.06 1747,3395.45 1748.37,4184.55 "/>
  <polygon class="fil4" points="1752.24,2580.56 1042.6,2984.05 1410.25,2380.06 "/>
 </g>
</svg>
