<?xml version="1.0" encoding="iso-8859-1"?>
<!-- Generator: Adobe Illustrator 19.0.0, SVG Export Plug-In . SVG Version: 6.00 Build 0)  -->
<svg version="1.1" id="Layer_1" xmlns="http://www.w3.org/2000/svg" xmlns:xlink="http://www.w3.org/1999/xlink" x="0px" y="0px"
	 viewBox="0 0 512.002 512.002" style="enable-background:new 0 0 512.002 512.002;" xml:space="preserve">
<path style="fill:#FEC95B;" d="M322.276,281.555c35.24,6.862,61.845,37.913,61.845,75.164v146.88H128.072v-146.88
	c0-37.251,26.604-68.302,61.845-75.164"/>
<path style="fill:#E8B152;" d="M222.485,281.555h-32.568c-35.24,6.862-61.845,37.913-61.845,75.164v146.88h32.568v-146.88
	C160.64,319.469,187.244,288.417,222.485,281.555z"/>
<g>
	<path style="fill:#E0B394;" d="M137.714,188.846c-13.925-0.618-25.01-12.106-25.01-26.178c0-14.464,11.724-26.2,26.2-26.2
		c1.303,0,2.583,0.09,3.841,0.281"/>
	<path style="fill:#E0B394;" d="M374.468,188.846c13.925-0.618,25.021-12.106,25.021-26.178c0-14.464-11.736-26.2-26.211-26.2
		c-1.303,0-2.594,0.101-3.841,0.281"/>
</g>
<path style="fill:#F7CBA4;" d="M218.194,302.097l-46.099-33.493c-24.361-17.699-37.539-46.967-34.643-76.939l7.996-82.742
	C150.955,51.935,198.844,8.451,256.097,8.451l0,0c57.253,0,105.142,43.484,110.649,100.472l7.996,82.742
	c2.896,29.972-10.281,59.239-34.643,76.939L294,302.097C271.399,318.517,240.794,318.517,218.194,302.097z"/>
<path style="fill:#E0B394;" d="M166.139,207.971c-0.775,13.106,3.493,25.998,11.938,36.049l48.181,59.206
	c2.516,2.998,5.368,5.514,8.456,7.524c-5.795-2.021-11.365-4.919-16.52-8.658l-46.1-33.488
	c-24.358-17.699-37.531-46.965-34.634-76.938l7.985-82.744c5.458-56.432,52.467-99.623,108.989-100.443
	c-34.814,0.842-74.235,33.657-76.29,68.605L166.139,207.971z"/>
<g>
	<path style="fill:#E6E6E6;" d="M363.639,265.019c-5.48,4.144-12.275,8.153-19.788,11.533
		c-30.456,13.678-72.783,17.047-87.753-21.966c-14.981,39.014-57.308,35.645-87.764,21.966c-7.513-3.38-14.307-7.389-19.788-11.533
		c26.458,0,34.96-32.13,67.089-45.359c14.723-6.064,25.481-3.785,32.815,0.46c3.201,1.853,5.795,4.425,7.67,7.434
		c2.021-3.212,4.851-5.952,8.355-7.85c7.311-3.975,17.834-5.907,32.085-0.045C328.68,232.889,337.192,265.019,363.639,265.019z"/>
	<path style="fill:#E6E6E6;" d="M343.852,276.552c0,0-0.157,49.042-46.201,64.764l-5.615-17.968l-35.937,42.675l-35.937-42.675
		l-5.615,17.968c-46.044-15.722-46.212-64.764-46.212-64.764c30.456,13.678,72.783,17.047,87.764-21.966
		C271.069,293.6,313.395,290.231,343.852,276.552z"/>
</g>
<path d="M212.744,174.069h-13.472c-4.652,0-8.423,3.771-8.423,8.423c0,4.652,3.771,8.423,8.423,8.423h13.472
	c4.652,0,8.423-3.771,8.423-8.423C221.166,177.84,217.395,174.069,212.744,174.069z"/>
<path d="M331.207,154.759c3.289-3.289,3.289-8.623-0.001-11.912c-13.902-13.901-36.522-13.901-50.424,0
	c-3.29,3.289-3.29,8.623-0.001,11.912c3.289,3.288,8.623,3.289,11.911,0c7.334-7.334,19.269-7.334,26.603,0
	c1.644,1.644,3.8,2.467,5.955,2.467S329.562,156.403,331.207,154.759z"/>
<path d="M231.221,154.759c3.289-3.289,3.289-8.621,0-11.911c-13.902-13.902-36.523-13.902-50.425,0
	c-3.289,3.289-3.289,8.621,0,11.911c3.289,3.289,8.623,3.289,11.911,0c7.334-7.334,19.268-7.334,26.602,0
	c1.644,1.645,3.8,2.467,5.955,2.467C227.419,157.226,229.577,156.404,231.221,154.759z"/>
<path d="M312.73,174.069h-13.472c-4.653,0-8.423,3.771-8.423,8.423c0,4.652,3.77,8.423,8.423,8.423h13.472
	c4.653,0,8.423-3.771,8.423-8.423C321.153,177.84,317.383,174.069,312.73,174.069z"/>
<path d="M407.816,162.643c0-17.808-13.52-32.514-30.837-34.41l-0.804-8.319l8.562,1.507c0.493,0.086,0.985,0.129,1.47,0.129
	c4.011,0,7.566-2.877,8.286-6.964c0.806-4.581-2.254-8.949-6.836-9.756l-13.299-2.34c-0.623-4.329-1.507-8.592-2.589-12.791
	l5.56,0.909c0.46,0.075,0.918,0.111,1.369,0.111c4.054,0,7.628-2.936,8.302-7.066c0.751-4.591-2.363-8.92-6.953-9.67l-14.505-2.371
	c-6.691-15.283-16.557-29.121-29.156-40.563C314.341,11.027,285.791,0,255.999,0c-22.384,0-44.227,6.237-63.17,18.038
	c-3.949,2.459-5.155,7.654-2.695,11.602c2.459,3.949,7.654,5.156,11.603,2.695c16.266-10.133,35.03-15.49,54.262-15.49
	c25.596,0,50.123,9.473,69.063,26.674c7.979,7.246,14.67,15.618,19.948,24.773c-4.343-0.359-8.283,2.665-8.995,7.03
	c-0.751,4.591,2.363,8.92,6.953,9.67l10.372,1.695c1.397,4.139,2.52,8.382,3.384,12.699l-0.969-0.171
	c-4.579-0.806-8.949,2.254-9.756,6.835c-0.806,4.581,2.254,8.949,6.836,9.756l6.125,1.078l7.303,75.57
	c2.056,21.257-4.712,41.955-18.642,57.794c-3.548-2.841-7.26-6.578-11.678-11.139c-9.303-9.607-19.847-20.497-36.272-27.262
	c-10.675-4.392-19.663-4.954-26.866-3.794v-25.376c0-4.652-3.77-8.423-8.423-8.423s-8.423,3.771-8.423,8.423v32.41
	c-1.075-0.834-2.206-1.598-3.384-2.281c-8.072-4.674-21.608-8.634-40.241-0.959c-16.428,6.764-26.973,17.654-36.277,27.262
	c-4.418,4.563-8.132,8.3-11.681,11.141c-13.923-15.829-20.691-36.53-18.642-57.797l7.303-75.569l6.128-1.078
	c4.581-0.806,7.641-5.174,6.835-9.756c-0.806-4.581-5.173-7.642-9.756-6.835l-0.958,0.168c0.868-4.314,2.008-8.555,3.414-12.704
	l10.331-1.688c4.591-0.75,7.704-5.079,6.954-9.67c-0.713-4.36-4.658-7.382-8.982-7.031c4.519-7.848,10.071-15.118,16.565-21.57
	c3.299-3.278,3.317-8.611,0.038-11.911c-3.278-3.301-8.611-3.316-11.911-0.038c-10.701,10.632-19.206,23.172-25.194,36.835
	l-14.548,2.377c-4.591,0.75-7.704,5.079-6.954,9.67c0.675,4.13,4.248,7.066,8.302,7.066c0.451,0,0.91-0.036,1.369-0.111l5.571-0.911
	c-1.088,4.205-1.968,8.471-2.593,12.791l-13.306,2.341c-4.581,0.806-7.641,5.174-6.835,9.756c0.72,4.088,4.273,6.964,8.285,6.964
	c0.485,0,0.976-0.042,1.47-0.129l8.557-1.506l-0.804,8.318c-17.314,1.895-30.831,16.602-30.831,34.41
	c0,15.576,10.213,28.771,24.44,33.111c-0.984,22.139,5.815,43.535,19.159,60.87c-3.34,0.266-6.239,2.473-7.319,5.69
	c-1.151,3.431,0.018,7.214,2.905,9.397c4.886,3.695,10.601,7.188,16.727,10.259c0.065,0.692,0.143,1.399,0.232,2.121
	c-25.302,15.388-40.773,42.658-40.773,72.605v146.88c0,4.652,3.771,8.423,8.423,8.423h256.048c4.653,0,8.423-3.771,8.423-8.423
	V356.7c0-16.726-4.859-32.918-14.052-46.825c-2.564-3.881-7.79-4.947-11.672-2.382c-3.88,2.565-4.947,7.79-2.382,11.67
	c7.367,11.144,11.259,24.124,11.259,37.536v138.457h-34.261V357.58c0-4.652-3.77-8.423-8.423-8.423s-8.423,3.771-8.423,8.423
	v137.574h-60.075V369.072l24.06-28.57l1.032,3.301c0.678,2.169,2.202,3.971,4.229,5c2.025,1.028,4.38,1.194,6.531,0.459
	c27.067-9.242,41.003-29.742,47.357-48.074c0.866,0.289,1.759,0.445,2.65,0.445c2.704,0,5.36-1.299,6.987-3.709
	c2.603-3.855,1.589-9.091-2.266-11.694c-1.088-0.736-2.208-1.442-3.342-2.134c0.09-0.724,0.168-1.433,0.234-2.126
	c6.125-3.07,11.841-6.564,16.726-10.259c2.886-2.183,4.056-5.967,2.905-9.397c-1.079-3.216-3.978-5.424-7.318-5.69
	c13.352-17.343,20.151-38.741,19.16-60.871C397.601,191.41,407.816,178.217,407.816,162.643z M121.031,162.643
	c0-7.888,5.168-14.585,12.294-16.903l-3.137,32.46C124.71,175.168,121.031,169.34,121.031,162.643z M188.16,250.827
	c8.557-8.838,17.407-17.976,30.59-23.405c9.867-4.064,18.409-4.078,25.387-0.038c1.946,1.126,3.542,2.674,4.741,4.599
	c1.534,2.463,4.228,3.962,7.13,3.969c2.858,0.008,5.602-1.48,7.147-3.936c1.307-2.076,3.119-3.781,5.251-4.937
	c6.863-3.733,15.228-3.616,24.852,0.344c13.176,5.428,22.026,14.566,30.583,23.404c5.934,6.129,11.979,12.372,19.204,16.739
	c-0.905,0.438-1.819,0.866-2.744,1.281c-20.519,9.214-41.284,11.2-55.553,5.316c-9.618-3.967-16.643-11.577-20.88-22.619
	c-1.249-3.256-4.375-5.405-7.862-5.405l0,0c-3.487,0-6.613,2.148-7.863,5.404c-4.241,11.044-11.271,18.654-20.893,22.622
	c-14.271,5.885-35.04,3.896-55.553-5.318c-0.923-0.416-1.838-0.842-2.741-1.28C176.178,263.201,182.224,256.956,188.16,250.827z
	 M187.491,495.155V357.58c0-4.652-3.771-8.423-8.423-8.423c-4.652,0-8.423,3.771-8.423,8.423v137.574h-34.243V356.698
	c0-22.134,10.545-42.44,28.083-55.148c6.416,18.238,20.355,38.531,47.243,47.713c2.148,0.734,4.504,0.569,6.531-0.459
	c2.026-1.028,3.551-2.831,4.229-5l1.031-3.301l24.058,28.57v126.084h-60.088V495.155z M302.841,329.969l-2.863-9.158
	c-0.916-2.937-3.362-5.138-6.378-5.745c-3.021-0.608-6.123,0.48-8.104,2.832l-29.495,35.025l-29.494-35.025
	c-1.981-2.353-5.085-3.438-8.104-2.832c-3.016,0.606-5.461,2.809-6.379,5.745l-2.861,9.158
	c-20.117-10.133-27.777-28.251-30.699-40.574c14.759,4.635,35.968,8.272,55.202,0.342c9.109-3.755,16.579-9.613,22.333-17.492
	c5.751,7.878,13.218,13.735,22.323,17.49c8.186,3.376,16.727,4.656,24.98,4.656c11.146,0,21.745-2.339,30.227-5.004
	C330.613,301.717,322.958,319.836,302.841,329.969z M381.807,178.2l-3.137-32.459c7.129,2.318,12.299,9.014,12.299,16.901
	C390.971,169.339,387.29,175.167,381.807,178.2z"/>
<circle cx="283.541" cy="388.273" r="8.423"/>
<circle cx="283.541" cy="427.848" r="8.423"/>
<circle cx="283.541" cy="467.591" r="8.423"/>
<g>
</g>
<g>
</g>
<g>
</g>
<g>
</g>
<g>
</g>
<g>
</g>
<g>
</g>
<g>
</g>
<g>
</g>
<g>
</g>
<g>
</g>
<g>
</g>
<g>
</g>
<g>
</g>
<g>
</g>
</svg>
