<svg height="512" viewBox="0 0 512 512" width="512" xmlns="http://www.w3.org/2000/svg"><g id="filled_outline" data-name="filled outline"><path d="m296 344 126.786 73.4a60 60 0 0 1 29.334 43.44l3.88 27.16h-400l3.88-27.158a60 60 0 0 1 29.334-43.442l126.786-73.4z" fill="#d32b39"/><path d="m248 488v-96a8 8 0 0 1 16 0v96z" fill="#bf2734"/><circle cx="192" cy="255.964" fill="#533222" r="72"/><path d="m215.496 296v48l-8 24 48.504 24 47.496-24-8-24v-48z" fill="#fdc9a6"/><path d="m295.5 296v24.92a59.737 59.737 0 0 1 -39.69 15.06h-.06a59.742 59.742 0 0 1 -40.25-15.62v-24.36z" fill="#e6af89"/><path d="m352 184v-57.874a46.93 46.93 0 0 0 -1.573-12.047l-.434-1.629a46.9 46.9 0 0 0 -30.493-32.45 56.721 56.721 0 0 0 -51.05-32h-6.338a110.287 110.287 0 0 0 -94.312 53.109 110.287 110.287 0 0 0 -15.974 58.337l.174 32.554 104-8z" fill="#533222"/><path d="m255.814 319.984h-.059a59.753 59.753 0 0 1 -49.53-26.369 180.075 180.075 0 0 1 -30.725-100.588c0-13.93 0-25.027 0-25.027l22.69-5.628a84.066 84.066 0 0 0 57.81-50.372l.073.183a84.069 84.069 0 0 0 57.512 50.3l21.915 5.517v25.953a180.079 180.079 0 0 1 -29.761 99.162l-.012.018a59.754 59.754 0 0 1 -49.913 26.851z" fill="#fdc9a6"/><g fill="#533222"><path d="m303.489 192a7.963 7.963 0 0 1 -3.663-.893l-15.5-8a8 8 0 1 1 7.34-14.216l15.5 8a8 8 0 0 1 -3.677 15.109z"/><circle cx="289.496" cy="202" r="11"/><path d="m208.006 192a8 8 0 0 1 -3.584-15.157l16-8a8 8 0 1 1 7.156 14.31l-16 8a7.976 7.976 0 0 1 -3.572.847z"/><circle cx="221.496" cy="202" r="11"/></g><path d="m253.611 280h-5.611a8 8 0 0 1 0-16h5.611a20.864 20.864 0 0 0 13.285-4.788 8 8 0 0 1 10.204 12.321 36.9 36.9 0 0 1 -23.489 8.467z" fill="#e6af89"/><path d="m264 248h-16a8 8 0 0 1 -8-8v-16a8 8 0 0 1 16 0v8h8a8 8 0 0 1 0 16z" fill="#e6af89"/><path d="m96 488v-32a8 8 0 0 1 16 0v32z" fill="#bf2734"/><path d="m400 488v-32a8 8 0 0 1 16 0v32z" fill="#bf2734"/><path d="m175.5 176h-11.06a20.944 20.944 0 0 0 -20.94 20.944v14.112a20.944 20.944 0 0 0 2.211 9.366 20.944 20.944 0 0 0 18.729 11.578h19.56z" fill="#fdc9a6"/><path d="m335.5 176h11.055a20.944 20.944 0 0 1 20.945 20.944v14.112a20.944 20.944 0 0 1 -2.211 9.366 20.944 20.944 0 0 1 -18.738 11.578h-18.551z" fill="#fdc9a6"/><path d="m256 384-40-48-32 24 9.385 32.848a31.922 31.922 0 0 0 30.693 23.152 31.922 31.922 0 0 0 31.922-31.922z" fill="#eaeae8"/><path d="m256 384 40-48 32 24-9.385 32.848a31.922 31.922 0 0 1 -30.693 23.152 31.922 31.922 0 0 1 -31.922-31.922z" fill="#eaeae8"/><ellipse cx="165.794" cy="367.189" fill="#533222" rx="74.087" ry="63.603" transform="matrix(.209 -.978 .978 .209 -227.907 452.718)"/><path d="m307.166 176.892-15.5-8a8 8 0 1 0 -7.34 14.216l15.5 8a8 8 0 1 0 7.34-14.216z"/><circle cx="289.496" cy="202" r="11"/><path d="m227.578 183.155a8 8 0 1 0 -7.156-14.31l-16 8a8 8 0 1 0 7.156 14.31z"/><circle cx="221.496" cy="202" r="11"/><path d="m266.9 259.212a20.864 20.864 0 0 1 -13.289 4.788h-5.611a8 8 0 0 0 0 16h5.611a36.9 36.9 0 0 0 23.493-8.467 8 8 0 0 0 -10.204-12.321z"/><path d="m248 248h16a8 8 0 0 0 0-16h-8v-8a8 8 0 0 0 -16 0v16a8 8 0 0 0 8 8z"/><path d="m51.96 459.711-3.879 27.158a8 8 0 0 0 7.919 9.131h400a8 8 0 0 0 7.919-9.131l-3.879-27.158a67.6 67.6 0 0 0 -33.246-49.232l-91.145-52.768a7.969 7.969 0 0 0 -2.849-4.111l-29.3-21.978v-22.61c0-.2-.016-.39-.03-.584a68.205 68.205 0 0 0 8.947-10.907 187.775 187.775 0 0 0 25.37-57.521h8.764a28.788 28.788 0 0 0 25.889-16 29.092 29.092 0 0 0 3.056-12.944v-14.112a28.966 28.966 0 0 0 -15.496-25.618v-45.2a54.955 54.955 0 0 0 -1.842-14.1l-.433-1.628a54.732 54.732 0 0 0 -32.553-36.829 65.126 65.126 0 0 0 -56.726-33.569h-6.339a118.286 118.286 0 0 0 -118.28 119.53l.173 16.554c0 .123.016.243.023.365a28.854 28.854 0 0 0 -8.527 20.495v2.405a79.983 79.983 0 0 0 -9.268 102.162c-15.173 12.219-26.095 30.274-30.461 50.738a89.854 89.854 0 0 0 3.393 50.151l-13.954 8.079a67.6 67.6 0 0 0 -33.246 49.232zm184.84-111.251a83.673 83.673 0 0 0 -8.588-26.065c-.064-.122-.118-.23-.181-.35a67.74 67.74 0 0 0 27.727 5.939h.088a67.683 67.683 0 0 0 31.653-7.828v13.552l-31.499 37.792zm11.058 38.262a23.96 23.96 0 0 1 -21.69 21.178 92.535 92.535 0 0 0 9.653-25.772c.583-2.73 1.035-5.466 1.373-8.2zm84.4-12.489 86.523 50.093a51.7 51.7 0 0 1 25.419 37.648l2.576 18.026h-30.776v-24a8 8 0 0 0 -16 0v24h-136v-63.981a39.9 39.9 0 0 0 62.307-20.973zm-13.458-11.133-7.873 27.554a23.922 23.922 0 0 1 -46.777-3.928l33.13-39.766zm8.7-169.143a171.619 171.619 0 0 1 -28.451 94.775 51.616 51.616 0 0 1 -43.2 23.256h-.084a51.687 51.687 0 0 1 -42.9-22.838 171.474 171.474 0 0 1 -29.362-96.12v-18.768l16.616-4.122a92.316 92.316 0 0 0 55.868-40.518 92.367 92.367 0 0 0 55.65 40.618l15.866 4zm32 2.991v14.112a13.012 13.012 0 0 1 -1.367 5.789 12.875 12.875 0 0 1 -11.582 7.151h-5.461a188.812 188.812 0 0 0 2.406-30.047v-9.953h3.055a12.959 12.959 0 0 1 12.949 12.944zm-184.859-91.692a102.867 102.867 0 0 1 87.466-49.256h6.339a49 49 0 0 1 43.854 27.487 8 8 0 0 0 4.671 4.1 38.794 38.794 0 0 1 25.3 26.917l.433 1.628a38.92 38.92 0 0 1 1.296 9.994v41.874h-.5a8 8 0 0 0 -6.046-7.757l-21.91-5.521a76.285 76.285 0 0 1 -52.044-45.517l-.074-.183a8 8 0 0 0 -7.426-5.022 8 8 0 0 0 -7.424 5.029 76.247 76.247 0 0 1 -52.312 45.578l-22.691 5.628a8 8 0 0 0 -6.073 7.765h-3.06a29.031 29.031 0 0 0 -4.52.355l-.094-8.993a102.205 102.205 0 0 1 14.815-54.106zm-23.141 91.688a12.958 12.958 0 0 1 12.94-12.944h3.06v9.028a188.806 188.806 0 0 0 2.553 30.972h-5.613a12.875 12.875 0 0 1 -11.578-7.155 13.014 13.014 0 0 1 -1.366-5.789zm-40.085 158.643c4.127-19.347 15.231-35.982 30.469-45.646a8 8 0 0 0 1.993-11.775c-.105-.132-.214-.259-.326-.383a63.921 63.921 0 0 1 -5.843-75.653c.262.632.538 1.258.844 1.87a28.785 28.785 0 0 0 25.888 16h9a187.685 187.685 0 0 0 26.148 58.085c.6.888 1.222 1.754 1.857 2.607.053.155.1.31.165.462l8.265 19.887a96.344 96.344 0 0 0 4.188 8.834 67.956 67.956 0 0 1 7.181 22.751c.023.23.058.459.1.687a76.782 76.782 0 0 1 -1.172 25.478c-6.771 31.733-31.755 54.072-58.319 54.07a47.218 47.218 0 0 1 -9.85-1.04c-29.983-6.397-48.192-40.596-40.588-76.234zm-5.191 61.213c9.679 15.492 24.441 26.83 42.443 30.671a62.815 62.815 0 0 0 13.13 1.387c20.182 0 39.548-9.7 53.7-25.792a39.805 39.805 0 0 0 32.5-7.051v63.985h-135.997v-24a8 8 0 0 0 -16 0v24h-30.776l2.576-18.026a51.7 51.7 0 0 1 25.424-37.648z"/></g></svg>