<?xml version="1.0" encoding="iso-8859-1"?>
<!-- Generator: Adobe Illustrator 19.0.0, SVG Export Plug-In . SVG Version: 6.00 Build 0)  -->
<svg version="1.1" id="Capa_1" xmlns="http://www.w3.org/2000/svg" xmlns:xlink="http://www.w3.org/1999/xlink" x="0px" y="0px"
	 viewBox="0 0 512.001 512.001" style="enable-background:new 0 0 512.001 512.001;" xml:space="preserve">
<path style="fill:#C8D6D5;" d="M376.336,182.206v-70.479c0-18.864-10.53-35.268-26.033-43.657c0.383-3.051,0.603-6.153,0.603-9.308
	V39.07h-20.205c0.091-1.737,0.138-3.485,0.138-5.244V7.5h-29.408c-26.838,0-50.109,15.211-61.705,37.473h-26.375
	c-43.33,0-78.455,35.125-78.455,78.455v58.723L376.336,182.206z"/>
<path style="fill:#1DB573;" d="M430.312,504.5H81.69c0.94-67.256,39.958-125.313,96.482-153.561
	c4.203-2.107,8.516-4.045,12.907-5.806c3.175-1.276,6.399-2.463,9.663-3.551c0.603-0.198,1.217-0.406,1.82-0.593
	c16.844-5.43,34.805-8.348,53.439-8.348s36.595,2.918,53.429,8.348c0.613,0.188,1.226,0.386,1.84,0.593
	c3.264,1.088,6.478,2.265,9.653,3.551c4.401,1.761,8.703,3.699,12.917,5.806c16.893,8.437,32.223,19.544,45.437,32.767
	C410.284,414.704,429.649,457.342,430.312,504.5z"/>
<path style="fill:#13955E;" d="M309.43,340.989c-3.986,25.913-26.427,45.813-53.429,45.813c-27.011,0-49.453-19.9-53.439-45.813
	c16.844-5.43,34.805-8.348,53.439-8.348S292.596,335.56,309.43,340.989z"/>
<path style="fill:#C97F4C;" d="M285.337,271.988v60.742c0,16.206-13.138,29.344-29.344,29.344l0,0
	c-16.206,0-29.344-13.138-29.344-29.344v-60.742H285.337z"/>
<path style="fill:#EDB48A;" d="M393.815,192.775c0,13.327-10.806,24.134-24.134,24.134c-3.51,0-6.832-0.751-9.837-2.096
	c-8.423-3.767-14.286-12.22-14.286-22.038c0-10.401,6.585-19.269,15.809-22.66c2.59-0.949,5.388-1.473,8.315-1.473
	C383.009,168.642,393.815,179.448,393.815,192.775z"/>
<path style="fill:#E29C6D;" d="M361.366,170.115v22.482c0,7.524-0.514,14.949-1.523,22.216c-8.423-3.767-14.286-12.22-14.286-22.038
	C345.558,182.374,352.142,173.506,361.366,170.115z"/>
<path style="fill:#EDB48A;" d="M166.429,192.775c0,9.818-5.863,18.271-14.286,22.038c-3.006,1.345-6.328,2.096-9.837,2.096
	c-13.327,0-24.134-10.806-24.134-24.134c0-13.327,10.806-24.134,24.134-24.134c2.927,0,5.724,0.524,8.315,1.473
	C159.845,173.506,166.429,182.374,166.429,192.775z"/>
<path style="fill:#E29C6D;" d="M166.429,192.775c0,9.818-5.863,18.271-14.286,22.038c-1.008-7.267-1.523-14.692-1.523-22.216
	v-22.482C159.845,173.506,166.429,182.374,166.429,192.775z"/>
<path style="fill:#EDB48A;" d="M348.517,110.124v82.477c0,64.674-41.432,117.114-92.526,117.114s-92.516-52.44-92.516-117.114
	v-82.477H348.517z"/>
<path style="fill:#E29C6D;" d="M348.517,110.124v39.641c-22.283-0.712-54.339-4.322-79.481-17.506
	c-11.859,15.825-30.789,25.498-51.401,25.498h-17.961v-2.581c-10.761,6.597-23.243,10.435-36.2,10.8v-55.852
	C163.474,110.124,348.517,110.124,348.517,110.124z"/>
<g>
	<rect x="310.431" y="427.11" style="fill:#37CC82;" width="55.74" height="48.04"/>
	<rect x="145.831" y="427.11" style="fill:#37CC82;" width="55.74" height="48.04"/>
</g>
<path style="fill:#E29C6D;" d="M256.001,209.202c8.003,0,15.567,3.047,21.33,8.199c4.694-1.876,9.564-2.852,14.342-2.852
	c10.145,0,18.863,4.611,23.324,12.336c3.552,6.151,4.102,13.564,1.549,20.875c-4.269,12.214-16.038,20.418-29.289,20.418h-62.512
	c-13.251,0-25.021-8.204-29.288-20.415c-2.554-7.314-2.004-14.727,1.547-20.877c4.461-7.725,13.181-12.337,23.324-12.337
	c0.001,0,0,0,0.001,0c4.778,0,9.647,0.975,14.342,2.852C240.433,212.249,247.998,209.202,256.001,209.202z"/>
<path style="fill:#FC4747;" d="M227.996,251.146c2.699,16.461,14.202,28.837,28.005,28.837c13.803,0,25.306-12.376,28.005-28.837
	H227.996z"/>
<path style="fill:#DDEDE5;" d="M224.745,255.178h62.512c7.548,0,14.526-4.577,17.015-11.704c1.249-3.575,1.169-7.141-0.533-10.089
	c-4.002-6.932-15.449-7.816-25.568-1.974c-1.606,0.927-3.065,1.977-4.395,3.1c-2.713-7.188-9.637-12.31-17.774-12.31
	c-8.138,0-15.062,5.122-17.774,12.31c-1.331-1.123-2.79-2.173-4.395-3.1c-10.118-5.842-21.566-4.958-25.568,1.974
	c-1.702,2.948-1.782,6.514-0.533,10.089C210.219,250.601,217.196,255.178,224.745,255.178z"/>
<path style="fill:#C8D6D5;" d="M357.874,95.034H155.447v58.123h5.944c21.769,0,40.793-11.458,51.142-28.539v20.281h5.099
	c21.135,0,39.265-12.583,46.991-30.508c11.152,8.302,38.379,22.675,93.251,22.675L357.874,95.034L357.874,95.034z"/>
<path d="M384.583,378.405c-13.9-13.91-29.846-25.407-47.384-34.166c-7.595-3.807-15.522-7.095-23.557-9.77
	c-6.788-2.269-13.768-4.138-20.806-5.588v-20.306c16.675-8.179,31.421-21.942,42.698-40.351c2.164-3.532,1.055-8.149-2.478-10.313
	c-3.533-2.162-8.149-1.055-10.313,2.478c-16.285,26.583-40.614,41.829-66.751,41.829c-46.878,0-85.017-49.176-85.017-109.622V159.96
	c12.622-1.816,24.455-7.154,34.056-15.234v0.173c0,4.142,3.357,7.5,7.5,7.5h5.1c20.527,0,39.227-10.444,49.767-27.215
	c13.079,7.664,36.131,16.767,73.612,18.913v48.498c0,12.285-1.572,24.352-4.674,35.866c-1.077,4,1.292,8.115,5.292,9.192
	c0.653,0.176,1.31,0.26,1.955,0.26c3.308,0,6.336-2.205,7.237-5.551c1.095-4.068,1.999-8.201,2.75-12.377
	c4.808,2.848,10.35,4.42,16.114,4.42c17.441,0,31.632-14.19,31.632-31.632c0-12.357-7.126-23.074-17.48-28.277v-52.769
	c0-19.295-9.697-37.121-25.613-47.645c0.123-1.806,0.185-3.584,0.185-5.32V39.07c0-4.142-3.357-7.5-7.5-7.5h-12.567V7.5
	c0-4.142-3.357-7.5-7.5-7.5h-29.41c-27.28,0-52.202,14.245-66.102,37.473H225.09c-4.143,0-7.5,3.358-7.5,7.5s3.357,7.5,7.5,7.5
	h14.636c2.796,0,5.36-1.555,6.651-4.035C257.121,27.813,278.217,15,301.431,15h21.909v18.826c0,1.59-0.043,3.223-0.129,4.853
	c-0.107,2.054,0.634,4.063,2.05,5.555c1.417,1.492,3.384,2.337,5.44,2.337h12.706v12.192c0,2.711-0.179,5.451-0.545,8.375
	c-0.385,3.068,1.152,6.058,3.872,7.53c13.633,7.377,22.102,21.578,22.102,37.061v49.441c-4.51,0.121-8.868,1.193-12.825,3.091
	v-19.706c0.622,0.004,1.234,0.013,1.863,0.013c4.143,0,7.5-3.358,7.5-7.5v-14.551c0-4.142-3.357-7.5-7.5-7.5s-7.5,3.358-7.5,7.5
	v6.958c-47.447-1.191-71.16-13.571-81.272-21.099c-1.84-1.37-4.206-1.822-6.421-1.228c-2.216,0.594-4.037,2.169-4.945,4.276
	c-6.489,15.058-21.119,25.031-37.703,25.913V124.62c0-3.365-2.241-6.318-5.482-7.224c-3.243-0.905-6.688,0.459-8.432,3.337
	c-9.315,15.374-26.454,24.925-44.728,24.925h-5.943c-4.143,0-7.5,3.358-7.5,7.5s3.357,7.5,7.5,7.5h0.529v3.583
	c-4.167-1.996-8.785-3.081-13.581-3.095V123.43c0-31.144,20.832-59.104,50.659-67.994c3.969-1.183,6.229-5.36,5.045-9.33
	c-1.183-3.97-5.359-6.23-9.33-5.045c-17.373,5.178-32.997,16.027-43.992,30.547c-11.371,15.018-17.382,32.937-17.382,51.821v41.455
	c-9.945,5.337-16.726,15.835-16.726,27.89c0,17.442,14.19,31.632,31.632,31.632c5.79,0,11.32-1.57,16.115-4.413
	c7.301,40.395,30.388,73.427,60.732,88.461v20.433c-7.028,1.448-13.999,3.316-20.772,5.58c-8.043,2.678-15.971,5.965-23.556,9.768
	c-8.283,4.138-16.401,9.025-24.132,14.525c-3.375,2.402-4.164,7.084-1.762,10.459c1.463,2.056,3.772,3.152,6.117,3.152
	c1.504,0,3.022-0.451,4.342-1.39c7.1-5.052,14.548-9.536,22.147-13.333c5.07-2.541,10.305-4.823,15.625-6.828
	c3.377,10.954,9.787,20.85,18.578,28.462c9.278,8.035,20.702,13.063,32.764,14.548V504.5c0,4.142,3.357,7.5,7.5,7.5
	c4.143,0,7.5-3.358,7.5-7.5V393.83c12.058-1.485,23.479-6.513,32.755-14.547c8.792-7.615,15.202-17.513,18.579-28.469
	c5.325,2.006,10.568,4.291,15.653,6.84c16.1,8.04,30.73,18.589,43.488,31.357c30.884,30.874,48.229,71.926,48.838,115.594
	c0.057,4.106,3.403,7.396,7.497,7.396c0.035,0,0.071,0,0.106-0.001c4.142-0.058,7.452-3.462,7.395-7.604
	C437.147,456.799,418.243,412.054,384.583,378.405z M369.685,176.142c9.171,0,16.632,7.461,16.632,16.632
	s-7.461,16.632-16.632,16.632c-5.537,0-10.696-2.746-13.8-7.345c-0.049-0.073-0.106-0.138-0.157-0.209
	c0.181-3.072,0.283-18.539,0.283-18.539C359.126,178.82,364.22,176.142,369.685,176.142z M142.302,209.405
	c-9.171,0-16.632-7.461-16.632-16.632s7.461-16.632,16.632-16.632c5.496,0,10.557,2.678,13.675,7.186c0,0,0.094,15.443,0.274,18.489
	C153.16,206.57,147.961,209.405,142.302,209.405z M255.993,317.217c7.454,0,14.767-1.014,21.844-2.956v18.469
	c0,12.045-9.799,21.844-21.844,21.844c-12.045,0-21.844-9.799-21.844-21.844v-18.515
	C241.183,316.175,248.492,317.217,255.993,317.217z M211.424,346.191c3.127-0.865,6.275-1.657,9.446-2.338
	c3.99,12.57,14.551,22.24,27.631,24.953v9.866C231.124,375.785,216.558,363.072,211.424,346.191z M263.501,378.672v-9.869
	c13.075-2.718,23.63-12.387,27.617-24.954c3.172,0.68,6.323,1.472,9.451,2.337C295.437,363.069,280.874,375.783,263.501,378.672z"/>
<path d="M123.748,382.222c-31.322,33.193-48.923,76.582-49.558,122.173c-0.058,4.142,3.253,7.546,7.395,7.604
	c0.035,0,0.071,0,0.106,0c4.094,0,7.44-3.29,7.497-7.396c0.583-41.826,16.731-81.633,45.47-112.087
	c2.843-3.013,2.705-7.759-0.308-10.602C131.338,379.071,126.591,379.209,123.748,382.222z"/>
<path d="M221.406,203.012v-12.824c0-4.142-3.357-7.5-7.5-7.5s-7.5,3.358-7.5,7.5v12.824c0,4.142,3.357,7.5,7.5,7.5
	S221.406,207.154,221.406,203.012z"/>
<path d="M298.081,210.512c4.143,0,7.5-3.358,7.5-7.5v-12.824c0-4.142-3.357-7.5-7.5-7.5s-7.5,3.358-7.5,7.5v12.824
	C290.581,207.154,293.939,210.512,298.081,210.512z"/>
<path d="M373.641,426.578c-0.269-3.868-3.586-6.973-7.473-6.973h-55.74c-4.08,0-7.5,3.424-7.5,7.5v48.044c0,4.142,3.357,7.5,7.5,7.5
	h55.74c4.143,0,7.5-3.358,7.5-7.5v-48.044C373.659,426.929,373.65,426.754,373.641,426.578z M345.979,434.605l-7.681,6.621
	l-7.681-6.621H345.979z M317.928,467.649v-24.178l15.474,13.337c1.407,1.212,3.151,1.819,4.896,1.819s3.489-0.606,4.896-1.819
	l15.474-13.337v24.178H317.928z"/>
<path d="M209.048,426.578c-0.269-3.868-3.586-6.973-7.473-6.973h-55.74c-4.08,0-7.5,3.424-7.5,7.5v48.044c0,4.142,3.357,7.5,7.5,7.5
	h55.74c4.143,0,7.5-3.358,7.5-7.5C209.074,475.149,209.057,426.754,209.048,426.578z M181.385,434.605l-7.681,6.621l-7.681-6.621
	H181.385z M153.334,467.649v-24.178l15.474,13.337c1.407,1.212,3.151,1.819,4.896,1.819s3.489-0.606,4.896-1.819l15.474-13.337
	v24.178H153.334z"/>
<path d="M223.405,262.627c5.944,15.216,18.422,24.856,32.596,24.856c14.156,0,26.651-9.646,32.597-24.856
	c10.36-0.527,19.402-7.085,22.753-16.678c2.018-5.774,1.621-11.567-1.117-16.313c-5.918-10.248-20.644-12.57-34.118-5.644
	c-4.955-5.763-12.282-9.29-20.115-9.29c-7.833,0-15.16,3.527-20.115,9.29c-13.476-6.927-28.2-4.605-34.118,5.644
	c-2.738,4.743-3.136,10.535-1.118,16.313C204.002,255.543,213.045,262.101,223.405,262.627z M256.001,272.483
	c-6.047,0-11.8-3.735-15.771-9.805h31.54C267.797,268.745,262.039,272.483,256.001,272.483z M214.758,237.137
	c0.722-1.25,2.787-2.104,5.587-2.104c2.734,0,6.169,0.815,9.735,2.874c1.133,0.654,2.247,1.441,3.312,2.339
	c1.862,1.57,4.371,2.137,6.725,1.525c2.355-0.613,4.268-2.333,5.127-4.61c1.684-4.461,6.007-7.458,10.758-7.458
	c4.751,0,9.074,2.997,10.758,7.458c0.859,2.278,2.771,3.998,5.129,4.61c2.351,0.612,4.862,0.044,6.725-1.527
	c1.061-0.895,2.174-1.681,3.309-2.336c7.219-4.167,13.897-3.24,15.322-0.772c0.704,1.22,0.27,2.946-0.052,3.867
	c-1.396,3.993-5.388,6.676-9.935,6.676h-62.512c-4.547,0-8.54-2.684-9.935-6.675C214.489,240.082,214.055,238.355,214.758,237.137z"
	/>
<path d="M298.349,91.195l6.698-6.698c2.929-2.929,2.929-7.678,0-10.606c-2.93-2.929-7.678-2.929-10.607,0l-6.698,6.698
	c-2.929,2.929-2.929,7.678,0,10.606c1.465,1.464,3.385,2.197,5.304,2.197S296.884,92.659,298.349,91.195z"/>
<path d="M321.824,91.195l6.698-6.698c2.929-2.929,2.929-7.678,0-10.606c-2.93-2.929-7.678-2.929-10.607,0l-6.698,6.698
	c-2.929,2.929-2.929,7.678,0,10.606c1.465,1.464,3.385,2.197,5.304,2.197S320.359,92.659,321.824,91.195z"/>
<path d="M325.104,183.509c4.143,0,7.5-3.358,7.5-7.5s-3.357-7.5-7.5-7.5h-0.093c-4.143,0-7.453,3.358-7.453,7.5
	S320.961,183.509,325.104,183.509z"/>
<path d="M321.548,158.501c0-4.142-3.357-7.5-7.5-7.5h-0.093c-4.143,0-7.454,3.358-7.454,7.5s3.404,7.5,7.547,7.5
	S321.548,162.644,321.548,158.501z"/>
<path d="M192.058,209.409h-0.093c-4.143,0-7.454,3.358-7.454,7.5s3.404,7.5,7.547,7.5s7.5-3.358,7.5-7.5
	S196.2,209.409,192.058,209.409z"/>
<g>
</g>
<g>
</g>
<g>
</g>
<g>
</g>
<g>
</g>
<g>
</g>
<g>
</g>
<g>
</g>
<g>
</g>
<g>
</g>
<g>
</g>
<g>
</g>
<g>
</g>
<g>
</g>
<g>
</g>
</svg>
