<?xml version="1.0" encoding="iso-8859-1"?>
<!-- Generator: Adobe Illustrator 19.0.0, SVG Export Plug-In . SVG Version: 6.00 Build 0)  -->
<svg version="1.1" id="Layer_1" xmlns="http://www.w3.org/2000/svg" xmlns:xlink="http://www.w3.org/1999/xlink" x="0px" y="0px"
	 viewBox="0 0 512 512" style="enable-background:new 0 0 512 512;" xml:space="preserve">
<path style="fill:#A0D755;" d="M392.333,310.059l-64.926-17.707h-142l-64.925,17.706c-19.306,5.265-32.7,22.801-32.7,42.812v152.482
	h337.25V352.87C425.032,332.859,411.639,315.324,392.333,310.059z"/>
<rect x="203.16" y="239.1" style="fill:#966D50;" width="106.5" height="71"/>
<path style="fill:#C39772;" d="M367.345,123.727h-4.438V97.102c0-49.016-39.735-88.75-88.75-88.75h-35.5
	c-49.015,0-88.75,39.734-88.75,88.75v26.625h-4.438c-12.254,0-22.187,9.933-22.187,22.188c0,12.253,9.933,22.188,22.187,22.188
	h4.885c4.52,54.655,50.23,97.625,106.052,97.625s101.532-42.97,106.052-97.625h4.885c12.254,0,22.188-9.934,22.188-22.188
	C389.532,133.661,379.599,123.727,367.345,123.727z"/>
<path style="fill:#B48764;" d="M212.032,159.227V97.102c0-44.478,32.755-81.206,75.438-87.645
	c-4.354-0.657-8.776-1.105-13.313-1.105h-35.5c-49.015,0-88.75,39.734-88.75,88.75v26.625h-4.438
	c-12.254,0-22.187,9.933-22.187,22.188c0,12.253,9.933,22.188,22.187,22.188h4.885c4.52,54.655,50.23,97.625,106.052,97.625
	c10.81,0,21.232-1.638,31.063-4.632C243.81,247.797,212.032,207.235,212.032,159.227z"/>
<path style="fill:#D5DCED;" d="M412.956,322.636c-5.48-5.858-12.474-10.354-20.623-12.577l-41.399-11.29
	c-8.827,17.328-36.944,66.446-89.149,105.077c-3.15,2.331-7.607,2.331-10.757,0c-52.204-38.631-80.322-87.749-89.149-105.077
	l-41.399,11.29c-8.149,2.223-15.143,6.719-20.623,12.577l41.289,55.556c5.688,7.653,8.759,16.935,8.759,26.47v100.691h213V404.661
	c0-9.535,3.071-18.817,8.759-26.47L412.956,322.636z"/>
<g>
	<path style="fill:#B4E66E;" d="M256.407,310.102l-28.618,21.464c-3.835,2.876-9.261,2.187-12.255-1.556l-30.126-37.658
		l8.875-26.625L256.407,310.102z"/>
	<path style="fill:#B4E66E;" d="M256.407,310.102l28.618,21.464c3.835,2.876,9.261,2.187,12.255-1.556l30.126-37.658l-8.875-26.625
		L256.407,310.102z"/>
</g>
<g>
	<path style="fill:#C7CFE2;" d="M166.754,24.211c-9.803,0-17.75,7.947-17.75,17.75c0,0.155,0.042,0.3,0.046,0.454
		c-1.448-0.297-2.947-0.454-4.484-0.454c-12.254,0-22.187,9.933-22.187,22.188c0,5.682,2.199,10.81,5.712,14.735
		c-8.493,3.113-14.587,11.193-14.587,20.765c0,12.254,9.933,22.188,22.187,22.188c12.254,0,22.188-9.934,22.188-22.188
		c0-5.682-2.199-10.81-5.712-14.735c8.493-3.113,14.587-11.194,14.587-20.765c0-1.536-0.157-3.036-0.454-4.484
		c0.155,0.004,0.299,0.046,0.454,0.046c9.803,0,17.75-7.947,17.75-17.75C184.504,32.158,176.557,24.211,166.754,24.211z"/>
	<path style="fill:#C7CFE2;" d="M344.254,24.211c9.803,0,17.75,7.947,17.75,17.75c0,0.155-0.042,0.3-0.046,0.454
		c1.448-0.297,2.947-0.454,4.484-0.454c12.254,0,22.188,9.933,22.188,22.188c0,5.682-2.199,10.81-5.712,14.735
		c8.493,3.113,14.587,11.193,14.587,20.765c0,12.254-9.933,22.188-22.188,22.188c-12.254,0-22.188-9.934-22.188-22.188
		c0-5.682,2.199-10.81,5.712-14.735c-8.493-3.113-14.587-11.194-14.587-20.765c0-1.536,0.157-3.036,0.454-4.484
		c-0.155,0.004-0.299,0.046-0.454,0.046c-9.803,0-17.75-7.947-17.75-17.75C326.504,32.158,334.451,24.211,344.254,24.211z"/>
	<path style="fill:#C7CFE2;" d="M350.934,298.768c-8.827,17.328-36.944,66.446-89.149,105.077c-3.149,2.331-7.607,2.331-10.757,0
		c-52.205-38.631-80.322-87.749-89.149-105.077l-22.78,6.213c7.702,16.55,38.815,77.02,100.674,122.332
		c4.68,3.432,10.201,5.148,15.731,5.148s11.05-1.716,15.731-5.148c62.506-45.787,93.586-106.983,100.875-122.77L350.934,298.768z"/>
</g>
<path d="M211.625,133.125c-4.142,0-7.5,3.358-7.5,7.5v8.875c0,4.142,3.358,7.5,7.5,7.5s7.5-3.358,7.5-7.5v-8.875
	C219.125,136.483,215.767,133.125,211.625,133.125z"/>
<path d="M300.375,157c4.142,0,7.5-3.358,7.5-7.5v-8.875c0-4.142-3.358-7.5-7.5-7.5s-7.5,3.358-7.5,7.5v8.875
	C292.875,153.642,296.233,157,300.375,157z"/>
<path d="M287.387,208.544c3.2-2.63,3.662-7.356,1.032-10.556c-2.63-3.2-7.357-3.662-10.556-1.032
	c-5.543,4.556-13.512,7.169-21.863,7.169s-16.32-2.613-21.863-7.169c-3.199-2.63-7.926-2.167-10.556,1.032
	c-2.63,3.2-2.168,7.926,1.032,10.556c8.301,6.823,19.448,10.581,31.387,10.581C267.939,219.125,279.086,215.367,287.387,208.544z"/>
<path d="M393.899,301.971l-61.054-16.651l-7.606-22.817c-0.753-2.258-2.533-4.025-4.796-4.761c-1.209-0.393-2.478-0.457-3.694-0.23
	v-2.682c5.87-3.71,11.434-7.974,16.611-12.771c19.298-17.878,31.714-41.615,35.403-67.432c13.629-1.207,25.167-11.276,27.414-24.363
	c1.454-8.473-0.728-16.678-5.446-23.004c8.823-5.196,14.768-14.842,14.768-25.868c0-9.337-4.401-18.005-11.515-23.579
	c1.728-3.828,2.64-7.987,2.64-12.223c0-15.85-12.276-28.863-27.743-29.876C365.7,25.323,356.085,17.75,344.75,17.75
	c-3.426,0-6.694,0.695-9.676,1.947C317.389,6.719,295.495,0,273.75,0h-35.5c-21.729,0-43.616,6.713-61.244,19.729
	c-3.003-1.273-6.299-1.979-9.756-1.979c-11.335,0-20.95,7.573-24.132,17.965c-15.467,1.013-27.743,14.027-27.743,29.876
	c0,4.236,0.913,8.395,2.64,12.223c-7.114,5.574-11.515,14.242-11.515,23.579c0,11.026,5.945,20.672,14.768,25.868
	c-4.719,6.326-6.901,14.531-5.446,23.004c2.247,13.087,13.785,23.157,27.414,24.363c3.689,25.816,16.105,49.553,35.403,67.432
	c5.178,4.797,10.741,9.061,16.611,12.771v2.681c-1.216-0.227-2.485-0.163-3.694,0.23c-2.263,0.736-4.043,2.502-4.796,4.761
	l-7.606,22.817l-61.053,16.651c-22.507,6.138-38.226,26.718-38.226,50.047V504.5c0,4.142,3.358,7.5,7.5,7.5s7.5-3.358,7.5-7.5
	V352.019c0-6.923,1.953-13.502,5.386-19.14l35.249,42.299c4.185,5.022,6.49,11.388,6.49,17.925V504.5c0,4.142,3.358,7.5,7.5,7.5
	s7.5-3.358,7.5-7.5V393.103c0-10.039-3.54-19.815-9.966-27.527l-36.439-43.74c3.413-2.4,7.265-4.251,11.453-5.393l39.38-10.74
	c5.642,12.111,33.228,66.572,90.213,107.275c1.304,0.931,2.832,1.397,4.359,1.397c1.527,0,3.055-0.466,4.359-1.397
	c56.985-40.704,84.571-95.165,90.213-107.275l39.38,10.74c4.187,1.142,8.039,2.993,11.452,5.392l-36.438,43.74
	c-6.427,7.712-9.966,17.488-9.966,27.527V504.5c0,4.142,3.358,7.5,7.5,7.5s7.5-3.358,7.5-7.5V393.103
	c0-6.537,2.305-12.903,6.49-17.925l35.249-42.299c3.433,5.637,5.386,12.216,5.386,19.14V504.5c0,4.142,3.358,7.5,7.5,7.5
	s7.5-3.358,7.5-7.5V352.019C432.125,328.689,416.406,308.109,393.899,301.971z M318.595,290.001l-27.578,34.472
	c-0.467,0.584-1.3,0.689-1.898,0.241l-20.422-15.316l45.524-32.517L318.595,290.001z M354.994,42.862
	c-0.019,0.191-0.033,0.407-0.038,0.645c-0.05,2.302,0.941,4.501,2.694,5.975s4.078,2.065,6.313,1.6
	c0.973-0.201,1.974-0.304,2.975-0.304c8.099,0,14.688,6.645,14.688,14.812c0,4.573-2.067,7.862-3.8,9.816
	c-1.658,1.869-2.29,4.444-1.688,6.877s2.361,4.406,4.695,5.269c5.783,2.137,9.667,7.699,9.667,13.84
	c0,8.167-6.589,14.812-14.688,14.812s-14.688-6.645-14.688-14.812c0-4.573,2.067-7.862,3.8-9.816
	c1.658-1.869,2.29-4.444,1.688-6.877s-2.361-4.406-4.695-5.269c-5.783-2.137-9.667-7.699-9.667-13.84c0-1.009,0.102-2.018,0.301-3
	c0.459-2.255-0.125-4.598-1.587-6.366c-1.427-1.725-3.538-2.719-5.759-2.719c-0.055,0-0.11,0-0.166,0.002
	c-0.236,0.005-0.449,0.02-0.639,0.038c-5.491-0.187-9.9-4.749-9.9-10.331c0-5.7,4.598-10.337,10.25-10.337
	C350.285,32.878,354.809,37.325,354.994,42.862z M131.167,87.553c2.334-0.863,4.093-2.836,4.695-5.269
	c0.602-2.433-0.029-5.008-1.688-6.877c-1.733-1.954-3.8-5.243-3.8-9.816c0-8.167,6.589-14.812,14.688-14.812
	c1,0,2.001,0.102,2.975,0.304c2.236,0.464,4.559-0.126,6.313-1.6c1.753-1.474,2.745-3.674,2.694-5.975
	c-0.005-0.238-0.02-0.453-0.038-0.645c0.185-5.538,4.709-9.985,10.244-9.985c5.652,0,10.25,4.637,10.25,10.337
	c0,5.582-4.41,10.144-9.9,10.331c-0.189-0.019-0.403-0.033-0.64-0.038c-2.283-0.074-4.463,0.949-5.925,2.717
	c-1.462,1.768-2.046,4.111-1.587,6.366c0.2,0.981,0.301,1.991,0.301,3c0,6.141-3.885,11.703-9.667,13.84
	c-2.334,0.863-4.093,2.836-4.695,5.269c-0.602,2.433,0.029,5.008,1.688,6.877c1.733,1.954,3.8,5.243,3.8,9.816
	c0,8.167-6.589,14.812-14.688,14.812s-14.688-6.645-14.688-14.812C121.5,95.252,125.385,89.69,131.167,87.553z M157.422,166.632
	c-0.322-3.889-3.572-6.882-7.475-6.882h-3.963c-7.591,0-14.203-5.169-15.38-12.023c-1.321-7.695,3.35-14.924,10.709-16.85
	c13.934-2.458,24.561-14.739,24.561-29.484c0-4.236-0.913-8.395-2.64-12.223c6.613-5.181,10.881-13.036,11.45-21.616
	c10.306-3.209,17.815-12.906,17.815-24.339c0-4.907-1.387-9.492-3.781-13.384C203.431,20.125,220.492,15,238.25,15h35.5
	c17.757,0,34.818,5.125,49.531,14.831c-2.394,3.892-3.781,8.477-3.781,13.384c0,11.432,7.509,21.13,17.815,24.339
	c0.569,8.58,4.837,16.436,11.45,21.616c-1.728,3.828-2.64,7.987-2.64,12.223c0,14.745,10.627,27.026,24.561,29.484
	c7.359,1.926,12.03,9.154,10.708,16.85c-1.176,6.854-7.788,12.023-15.379,12.023h-3.963c-3.902,0-7.153,2.993-7.475,6.882
	c-2.041,24.67-13.195,47.55-31.41,64.424c-18.32,16.972-42.174,26.319-67.167,26.319s-48.848-9.347-67.167-26.319
	C170.618,214.182,159.463,191.302,157.422,166.632z M256,272.375c15.939,0,31.474-3.307,45.75-9.572v4.552L256,300.033
	l-45.75-32.679v-4.552C224.526,269.068,240.061,272.375,256,272.375z M197.779,276.88l45.524,32.517l-20.422,15.316
	c-0.598,0.449-1.432,0.342-1.898-0.241L193.405,290L197.779,276.88z M256,397.584c-47.547-35.599-72.861-81.806-79.838-95.9
	l6.059-1.653l27.049,33.812c3.245,4.056,7.977,6.173,12.771,6.173c3.421,0,6.875-1.079,9.84-3.303L248.5,324.25v47.125
	c0,4.142,3.358,7.5,7.5,7.5s7.5-3.358,7.5-7.5V324.25l16.619,12.464c2.965,2.224,6.418,3.303,9.84,3.303
	c4.794,0,9.527-2.118,12.771-6.173l27.049-33.812l6.065,1.654C328.893,315.768,303.667,361.903,256,397.584z"/>
<g>
</g>
<g>
</g>
<g>
</g>
<g>
</g>
<g>
</g>
<g>
</g>
<g>
</g>
<g>
</g>
<g>
</g>
<g>
</g>
<g>
</g>
<g>
</g>
<g>
</g>
<g>
</g>
<g>
</g>
</svg>
